<svg version="1.1" id="Layer_1" xmlns="http://www.w3.org/2000/svg" xmlns:xlink="http://www.w3.org/1999/xlink" x="0px" y="0px"
	 width="100%" viewBox="0 0 1242 791" enable-background="new 0 0 1242 791" xml:space="preserve">
<path fill="#FEFEFE" opacity="1.000000" stroke="none" 
	d="
M804.000000,792.000000 
	C536.032837,792.000000 268.565735,792.000000 1.049292,792.000000 
	C1.049292,528.398621 1.049292,264.797180 1.049292,1.097877 
	C414.883850,1.097877 828.767700,1.097877 1242.825806,1.097877 
	C1242.825806,264.666565 1242.825806,528.333252 1242.825806,792.000000 
	C1096.796997,792.000000 950.648499,792.000000 804.000000,792.000000 
M512.248962,295.016449 
	C511.155975,295.349121 510.024719,295.590454 508.976166,296.029327 
	C502.340179,298.807129 502.423187,298.796967 504.603119,305.615753 
	C505.007904,306.881958 504.514343,308.435333 504.404236,310.416626 
	C501.394897,308.202545 499.210236,306.595215 497.022522,304.248352 
	C497.378693,303.355804 497.624634,302.396149 498.117523,301.586914 
	C498.810974,300.448364 499.687531,299.421387 500.485779,298.346680 
	C499.202362,297.931976 497.918945,297.517303 497.646912,297.429413 
	C494.784485,293.911957 491.914398,291.236176 490.148346,287.964478 
	C488.529907,284.966187 488.103241,281.324554 487.109619,277.818817 
	C485.329437,279.879852 484.578705,281.441772 483.381104,281.949554 
	C482.065430,282.507416 480.338165,282.094360 478.790222,282.104370 
	C478.917725,280.499725 479.045227,278.895111 479.187439,277.105164 
	C475.325500,273.954987 471.027130,271.421112 465.540649,274.080597 
	C466.191254,274.537323 466.987732,274.434814 467.609344,274.717224 
	C469.334869,275.501160 472.308380,276.303467 472.421082,277.352783 
	C472.756409,280.474701 470.354980,281.155975 467.438934,281.062378 
	C461.448822,280.870087 455.448273,281.017120 449.452057,280.997894 
	C444.376495,280.981598 439.274353,281.224609 434.236389,280.770691 
	C431.544128,280.528107 428.355255,277.690125 426.500214,278.516052 
	C424.599609,279.362244 424.166290,283.311523 422.850067,285.773956 
	C422.427216,286.565094 421.239471,286.947388 420.401703,287.516724 
	C420.355011,286.597504 420.354248,285.673035 420.250092,284.760376 
	C420.117279,283.596985 420.165161,282.290649 419.618896,281.343750 
	C419.303619,280.797211 417.573303,280.369934 417.176056,280.707703 
	C416.248566,281.496399 415.120850,282.815826 415.181671,283.855530 
	C415.357910,286.867065 415.997101,289.865479 416.666992,292.820862 
	C416.783264,293.333649 417.935699,293.611511 418.838654,294.129242 
	C419.718750,292.601196 420.464569,291.306274 421.210358,290.011383 
	C421.747589,290.101532 422.284790,290.191681 422.822021,290.281799 
	C422.602448,292.282837 422.413818,294.287872 422.155029,296.283813 
	C421.864685,298.522858 421.159210,300.766968 421.242828,302.985931 
	C421.729340,315.900299 422.423279,328.806702 422.943329,341.720001 
	C422.983276,342.711487 422.505829,344.284180 421.787872,344.654633 
	C417.168640,347.038300 416.493225,350.811676 417.352051,355.493469 
	C420.820282,355.166107 424.562347,354.152008 421.365479,359.920715 
	C419.955933,362.464264 424.115875,366.081573 427.176941,365.869507 
	C429.466125,365.710938 431.802734,366.236847 434.744659,366.517761 
	C435.627747,364.202179 437.531250,362.740997 441.058044,365.233246 
	C442.006744,365.903595 443.834534,365.412201 445.250336,365.321594 
	C447.963318,365.148010 450.677246,364.939087 453.376038,364.620239 
	C454.418060,364.497101 455.420044,364.035126 456.440247,363.727509 
	C456.026917,362.752502 455.743561,361.689545 455.161072,360.829071 
	C454.652740,360.078033 453.807343,359.555145 453.431641,359.218689 
	C454.713379,355.201752 455.836182,351.682983 457.086975,347.763062 
	C457.976715,348.470276 458.781677,348.818848 459.111542,349.425720 
	C460.192230,351.413788 460.781433,353.749512 462.156586,355.476166 
	C463.806244,357.547424 465.796875,359.981079 468.129639,360.727905 
	C471.761505,361.890594 474.918823,367.962616 479.743591,362.538269 
	C480.210236,362.013672 482.889465,362.355865 483.215698,362.984131 
	C485.545685,367.471680 489.542511,366.896881 493.526489,367.099365 
	C495.851257,367.217468 498.126801,368.304474 499.430267,368.673828 
	C501.670776,363.697449 503.363037,359.705994 505.355560,355.870514 
	C505.556427,355.483856 507.606262,355.902222 508.739624,356.182922 
	C513.276245,357.306335 517.789734,358.522858 522.702148,359.769470 
	C522.702148,359.769470 523.095215,359.846191 523.024780,360.618713 
	C520.972900,362.579681 518.921021,364.540619 516.869141,366.501556 
	C519.211975,367.163269 521.810486,367.138550 523.669800,365.953796 
	C525.233704,364.957214 525.937439,362.610748 527.955261,360.894135 
	C533.954712,360.840454 539.954163,360.786774 545.979919,361.586731 
	C545.826172,363.193024 545.672485,364.799347 545.519836,366.394623 
	C552.796387,367.811462 554.347473,367.417725 555.347656,364.649841 
	C553.060059,362.925751 550.975281,361.354462 549.409485,359.298462 
	C551.914917,358.435760 554.420410,357.573059 557.295593,357.315552 
	C558.248230,357.099701 559.212585,356.925140 560.150940,356.658875 
	C561.780640,356.196442 563.591614,354.937103 564.980957,355.307709 
	C571.654724,357.087952 578.212830,359.302155 584.538818,361.276978 
	C585.719299,367.486267 586.746216,367.959808 594.431458,366.373108 
	C594.289551,364.592194 594.147217,362.806366 594.760803,361.011719 
	C596.157532,360.747375 597.554260,360.483063 599.714966,360.076447 
	C600.467590,360.211060 601.220154,360.345703 601.982483,361.279144 
	C602.059448,367.258545 604.204834,369.791260 607.406494,367.507904 
	C609.669189,365.894165 611.160645,363.199127 613.806580,360.961304 
	C621.679565,360.451050 630.414917,353.873596 632.593994,346.581207 
	C635.149841,338.028534 634.233948,330.275604 626.630554,324.454742 
	C624.197327,322.591949 624.602966,321.202026 627.096741,320.160309 
	C632.256775,318.004822 632.999084,315.936340 630.692322,310.548218 
	C629.815491,308.500244 629.473328,306.223450 629.615601,303.906830 
	C632.798340,300.801331 630.048035,299.239258 627.804810,298.024231 
	C625.989014,297.040802 623.633545,297.069275 621.788086,296.121887 
	C617.852417,294.101379 614.590027,294.322083 611.412170,297.859619 
	C610.939697,297.592102 610.467163,297.324615 609.915771,296.305298 
	C607.252075,295.204926 604.266052,292.759430 601.996460,293.303406 
	C598.097717,294.237946 592.390137,292.967712 590.337769,299.072571 
	C589.891357,299.067169 589.444885,299.061798 588.879639,298.331329 
	C580.878052,293.563080 577.474426,293.151489 571.479980,296.344910 
	C574.661011,297.026672 577.714844,297.681183 580.423889,298.261810 
	C579.084229,301.004883 578.076294,303.068665 577.062256,305.857971 
	C575.749695,308.259094 574.437134,310.660217 572.394409,313.126556 
	C570.191406,314.111572 567.988342,315.096619 565.361572,315.571167 
	C565.189392,314.470978 565.017273,313.370789 564.993469,311.536926 
	C566.613281,310.838074 568.233032,310.139191 569.852783,309.440308 
	C574.131042,303.801208 568.470703,300.153076 565.117371,295.769775 
	C565.615723,297.320068 566.114075,298.870392 567.099182,301.935242 
	C564.564148,301.155273 563.023804,300.741119 561.525024,300.209595 
	C555.749146,298.161316 550.054138,295.848236 544.188904,294.104889 
	C541.485352,293.301300 539.784180,294.976257 539.103333,298.043488 
	C536.403992,298.010010 533.704651,297.976532 530.907166,297.216064 
	C528.676392,295.985016 526.445618,294.753937 524.778503,293.833954 
	C523.360474,296.365997 522.492126,297.916504 521.623840,299.467010 
	C521.537842,298.319550 521.451904,297.172089 521.365967,296.024628 
	C519.570007,295.023865 517.773987,294.023102 515.342346,293.069336 
	C514.566345,293.716553 513.790344,294.363770 512.248962,295.016449 
M53.070442,341.088776 
	C53.875389,347.977325 53.418228,355.331604 55.751976,361.656006 
	C60.395950,374.241150 65.985016,386.570557 72.241318,398.448547 
	C85.774590,424.142334 104.136528,446.632629 121.169205,469.987579 
	C122.982277,472.473633 125.239990,474.635376 127.652824,477.354889 
	C129.522232,475.071472 131.105560,473.391724 132.401184,471.513458 
	C140.606842,459.617767 148.791107,447.706818 156.902786,435.746887 
	C172.435333,412.845520 186.408981,389.150635 195.108826,362.642120 
	C200.296524,346.835175 198.507980,331.261230 191.779190,316.897064 
	C182.901443,297.945465 168.560394,284.296051 147.969101,277.237976 
	C123.463814,268.838257 101.078812,273.677612 81.386475,288.250244 
	C64.558159,300.703461 54.766991,318.642700 53.070442,341.088776 
M690.673340,335.552368 
	C687.643005,336.417664 682.699951,336.474121 681.929810,338.295227 
	C679.292725,344.531158 674.124451,343.077606 670.000549,342.846527 
	C667.322205,342.696442 664.014771,340.168427 662.384338,337.760956 
	C659.012268,332.781860 659.961609,331.500641 665.949646,331.563965 
	C676.606873,331.676605 687.262878,331.933746 697.920166,331.985168 
	C700.003174,331.995209 702.958557,332.922150 703.165894,329.161377 
	C703.796814,317.720276 700.308228,307.525513 688.203674,302.559418 
	C678.089050,298.409760 668.008179,297.744781 657.557617,301.451080 
	C639.494202,307.857208 632.515564,334.473541 645.247498,349.016663 
	C654.630249,359.734131 671.674927,363.121765 687.114563,357.851898 
	C694.463074,355.343658 699.338501,350.760101 702.087769,343.673859 
	C704.617188,337.154205 703.702454,335.809052 696.596252,335.584412 
	C694.932068,335.531830 693.265015,335.566223 690.673340,335.552368 
M808.882996,347.737457 
	C814.097046,333.361725 819.250244,318.963379 824.570679,304.627136 
	C825.800964,301.312073 825.199280,299.319794 821.554260,299.130035 
	C816.904907,298.887939 812.199463,298.632843 807.600891,299.137482 
	C806.116272,299.300385 804.189026,301.632355 803.677673,303.336273 
	C801.911438,309.220917 800.791382,315.295715 799.208862,321.240509 
	C798.067383,325.528137 796.581909,329.724213 795.249878,333.961121 
	C794.695496,333.918854 794.141113,333.876587 793.586731,333.834320 
	C792.864075,332.093597 791.964722,330.403076 791.453003,328.602448 
	C790.088806,323.801971 788.944885,318.939301 787.617615,314.127808 
	C783.347778,298.649902 783.331055,298.654510 767.220703,298.910522 
	C766.721130,298.918457 766.219360,298.898590 765.722412,298.938751 
	C761.372009,299.290070 760.598755,300.679810 762.059021,304.699066 
	C767.563721,319.849640 773.093140,334.993225 778.376038,350.221741 
	C781.814575,360.133606 781.630737,360.197388 791.914673,360.216949 
	C804.217407,360.240356 804.217407,360.240356 808.882996,347.737457 
M712.886658,328.499237 
	C712.828552,337.323334 712.905762,346.151398 712.646912,354.969604 
	C712.540649,358.592926 713.685608,360.255707 717.423889,360.136658 
	C721.081543,360.020233 724.777466,359.913300 728.403870,360.298584 
	C733.278748,360.816559 734.862427,358.815002 734.767639,354.115509 
	C734.603088,345.967377 734.585083,337.793243 735.060120,329.662384 
	C735.461487,322.792480 739.640320,319.306671 746.438049,319.161896 
	C754.079041,318.999146 754.081116,318.999176 754.175720,311.380890 
	C754.188110,310.382141 754.141541,309.382385 754.164429,308.384094 
	C754.393066,298.402100 751.752991,297.453888 741.646484,300.259949 
	C739.849792,300.758759 738.356750,302.391663 736.757202,303.547546 
	C735.372986,304.547882 734.036621,305.614441 732.466187,306.814453 
	C730.175476,298.921082 730.052002,298.836609 721.674500,298.936310 
	C720.176208,298.954132 718.677673,298.972504 717.179810,299.012482 
	C713.922180,299.099335 712.496277,300.545166 712.618835,304.027527 
	C712.893738,311.844727 712.820129,319.674255 712.886658,328.499237 
M736.994751,438.888214 
	C737.331238,435.005676 737.667725,431.123138 738.004272,427.240601 
	C738.332275,427.180206 738.660339,427.119781 738.988403,427.059357 
	C744.825195,441.809204 750.661987,456.559052 756.498840,471.308899 
	C757.030884,471.256866 757.562927,471.204834 758.094971,471.152832 
	C764.174500,456.003113 770.254089,440.853394 776.333679,425.703674 
	C777.511780,427.100769 777.776489,428.299164 777.832397,429.507233 
	C778.217468,437.830231 778.343262,446.171844 778.982361,454.474396 
	C779.497864,461.171082 779.772949,467.334259 770.890930,468.406433 
	C770.856018,468.410614 770.854675,468.692657 770.786438,469.302826 
	C779.417725,469.302826 787.989319,469.302826 796.870239,469.302826 
	C796.486206,468.514557 796.456421,468.320923 796.349060,468.256439 
	C795.931580,468.005768 795.498901,467.621277 795.055237,467.597565 
	C789.002808,467.273956 787.517761,463.585358 787.406189,458.179810 
	C787.196594,448.020782 786.546570,437.870850 786.083435,427.716980 
	C785.708984,419.505219 785.715332,419.515564 793.529175,416.543304 
	C793.895874,416.403809 794.079590,415.783173 794.984375,414.448730 
	C789.958740,414.448730 785.569336,414.183899 781.241028,414.582764 
	C779.575256,414.736298 777.268250,416.029358 776.596985,417.441742 
	C774.031799,422.839111 772.021790,428.499756 769.789062,434.055908 
	C766.659485,441.843903 763.516174,449.626343 759.920105,458.549225 
	C753.928345,443.045593 748.385315,428.703156 743.037354,414.865479 
	C737.158813,414.865479 731.824890,414.865479 725.028015,414.865479 
	C727.001587,416.080292 727.593079,416.650726 728.288391,416.840515 
	C735.292175,418.752106 735.627625,419.017273 734.960938,425.949249 
	C734.004150,435.896423 732.496399,445.801819 731.871155,455.765686 
	C731.445984,462.539856 729.695801,467.451324 722.025085,468.071808 
	C721.896179,468.082245 721.808533,468.603516 721.542236,469.308105 
	C729.102478,469.308105 736.493286,469.308105 743.884155,469.308105 
	C743.335266,468.063873 742.679077,467.690002 741.973450,467.502594 
	C735.169678,465.695557 734.640381,464.818329 735.383972,457.726257 
	C736.009155,451.763855 736.433105,445.780365 736.994751,438.888214 
M338.295654,474.500122 
	C338.297546,400.521973 338.306000,326.543823 338.274689,252.565689 
	C338.273560,249.914703 338.309479,247.125473 337.514862,244.663116 
	C337.010284,243.099640 334.999420,242.022232 333.664062,240.726852 
	C332.585846,241.846466 331.013367,242.792847 330.545959,244.126541 
	C329.854279,246.100220 329.737793,248.348679 329.736328,250.480392 
	C329.683960,326.457855 329.673248,402.435333 329.657654,478.412811 
	C329.655823,487.409790 329.444122,496.415680 329.817719,505.397156 
	C329.906219,507.524902 331.612030,510.973541 333.191711,511.373291 
	C336.924194,512.317871 337.722748,509.010681 337.784424,505.960754 
	C337.989655,495.807953 338.129730,485.653809 338.295654,474.500122 
M833.681213,303.172241 
	C833.694580,320.167206 833.863525,337.164368 833.619446,354.155640 
	C833.552551,358.811462 835.050964,360.544495 839.611267,360.222809 
	C843.092896,359.977264 846.615845,360.016296 850.102295,360.228210 
	C853.328674,360.424347 854.687988,359.133911 854.679749,355.955780 
	C854.634033,338.292938 854.725281,320.628693 854.458984,302.969666 
	C854.438171,301.588623 852.159424,299.239990 850.725220,299.070068 
	C846.455750,298.564148 842.054138,298.639587 837.768860,299.095673 
	C836.300476,299.251953 835.023315,301.205383 833.681213,303.172241 
M711.011780,424.491119 
	C707.826416,422.143341 704.962463,418.948456 701.399231,417.596741 
	C687.188110,412.205566 672.410645,414.942902 657.243958,415.452332 
	C658.191101,416.140808 658.756165,416.902496 659.366638,416.940765 
	C665.288818,417.312073 666.556458,420.874420 666.442444,426.121643 
	C666.207397,436.944031 666.227783,447.777863 666.435852,458.601349 
	C666.532166,463.612976 665.385071,467.107208 659.665161,467.518127 
	C658.987610,467.566803 658.368286,468.425446 657.399231,469.149902 
	C670.408142,469.149902 682.978821,470.507904 695.137878,468.848785 
	C716.231201,465.970673 724.573181,442.339783 711.011780,424.491119 
M555.864990,450.776978 
	C557.847900,454.051941 560.086731,457.202087 561.758362,460.628906 
	C564.875122,467.018280 568.678284,471.780457 576.855713,469.604584 
	C578.067200,469.282257 579.500732,469.901520 580.820129,469.840118 
	C581.715942,469.798401 582.591858,469.328522 583.625732,469.003204 
	C579.949768,466.981232 575.934509,465.974762 573.873535,463.402466 
	C568.706055,456.952972 564.423157,449.794739 559.654114,442.726074 
	C560.900085,441.996857 561.714355,441.487396 562.557739,441.031921 
	C569.965149,437.031616 572.924866,432.327240 571.897034,426.163116 
	C570.865112,419.974213 565.822876,415.790802 557.951416,414.644623 
	C556.637268,414.453247 555.300171,414.335541 553.973083,414.330261 
	C546.154480,414.299164 538.335449,414.285126 530.517334,414.349884 
	C529.734863,414.356354 528.957153,414.930206 528.207581,415.228668 
	C528.395874,415.799133 528.399536,416.025604 528.507751,416.099792 
	C528.909424,416.375305 529.338379,416.799255 529.769836,416.814850 
	C535.759644,417.031189 537.045288,420.614075 536.919250,425.891113 
	C536.680664,435.878815 536.992615,445.878845 536.809875,455.868896 
	C536.645447,464.857666 538.582153,465.283417 528.541870,468.216797 
	C528.408203,468.255859 528.413696,468.771362 528.301636,469.323547 
	C536.817505,469.323547 545.266296,469.323547 553.715027,469.323547 
	C552.364746,467.770203 550.616943,467.689453 549.386414,466.850220 
	C547.770142,465.747894 545.484802,464.130463 545.367065,462.590790 
	C544.903625,456.532074 545.177246,450.416962 545.177246,444.365082 
	C550.825439,443.116150 553.175964,446.567200 555.864990,450.776978 
M847.144531,414.617157 
	C843.778381,414.617157 840.412292,414.617157 837.005981,414.617157 
	C837.099670,415.465759 837.019043,415.956970 837.192017,416.074249 
	C837.718018,416.430878 838.318176,416.729004 838.931396,416.898499 
	C846.080566,418.874695 846.257507,419.014526 846.031738,426.451813 
	C845.708557,437.100372 845.150696,447.743225 844.944519,458.393372 
	C844.843567,463.610748 843.193665,467.083679 837.474854,467.568207 
	C836.742737,467.630249 836.065308,468.337524 834.261108,469.385925 
	C842.986816,469.385925 850.350159,469.385925 857.713562,469.385925 
	C857.051758,468.104340 856.258850,467.506165 855.418640,467.430298 
	C849.804138,466.922943 848.351135,463.592316 848.683533,458.466400 
	C849.038452,452.990723 848.928711,447.483215 848.967834,441.989227 
	C849.006042,436.623047 848.976135,431.256409 848.976135,425.889954 
	C849.427795,425.772736 849.879517,425.655518 850.331177,425.538330 
	C863.931824,440.844788 877.532471,456.151245 891.133118,471.457703 
	C891.552795,471.281525 891.972534,471.105347 892.392212,470.929169 
	C892.528870,469.187592 892.757202,467.447632 892.787415,465.704254 
	C893.004272,453.219513 893.144714,440.733429 893.382263,428.249146 
	C893.547729,419.553955 893.602905,419.564636 901.937683,416.557037 
	C902.308472,416.423218 902.511475,415.824158 903.092224,415.034485 
	C895.291748,415.034485 887.881897,415.034485 880.472046,415.034485 
	C880.879517,416.244873 881.367065,416.710754 881.936096,416.854919 
	C889.483887,418.767334 889.818237,419.163177 889.833130,426.927124 
	C889.848755,435.085358 889.859009,443.243713 889.822693,451.401794 
	C889.816772,452.737122 889.558655,454.071350 889.317078,456.349457 
	C887.683838,454.641113 886.768738,453.736359 885.911743,452.779510 
	C875.361755,440.999451 864.895447,429.142609 854.187012,417.508545 
	C852.751953,415.949493 850.105042,415.505829 847.144531,414.617157 
M468.868073,459.631226 
	C479.552032,472.298828 499.220154,475.056122 511.398163,465.593536 
	C522.980957,456.593506 525.989441,438.569672 518.005127,426.011505 
	C510.351471,413.973328 492.221008,409.489380 478.939789,416.349945 
	C463.938141,424.099213 459.318329,442.825043 468.868073,459.631226 
M431.724915,446.534790 
	C431.848022,445.280945 431.971130,444.027100 432.118561,442.525391 
	C436.182861,442.744049 440.368164,441.904968 443.323547,443.437561 
	C446.093903,444.874207 447.562622,448.820862 449.585571,451.637115 
	C449.585571,444.829773 449.585571,437.997314 449.585571,431.164856 
	C444.308868,441.969879 444.885773,439.815308 431.822784,439.506897 
	C431.822784,433.554077 431.667542,427.577820 431.946075,421.621826 
	C432.006042,420.339600 433.367645,418.497070 434.579590,417.991699 
	C441.879791,414.947845 451.948090,418.754639 456.012421,425.741333 
	C456.386169,426.383820 457.257355,426.736969 458.958618,428.032440 
	C457.674316,422.628571 456.701721,418.536102 455.815399,414.806702 
	C441.770569,414.806702 428.283234,414.806702 413.547760,414.806702 
	C415.213837,416.012848 415.793030,416.792419 416.407257,416.821106 
	C422.453796,417.103333 423.521423,420.818970 423.419403,425.993958 
	C423.206116,436.815063 423.155396,447.648285 423.435242,458.466278 
	C423.573517,463.812073 422.115112,467.180389 416.306030,467.601715 
	C415.727905,467.643616 415.200989,468.392090 414.001862,469.307739 
	C423.400421,469.307739 431.863373,469.307739 440.326294,469.307739 
	C439.541443,468.029968 438.691772,467.481140 437.797058,467.393829 
	C432.922638,466.918304 431.414062,464.073242 431.676941,459.513611 
	C431.906616,455.529907 431.722656,451.522369 431.724915,446.534790 
M628.266357,447.703857 
	C629.760986,448.592346 631.683105,449.163422 632.639404,450.451599 
	C633.773621,451.979492 634.090698,454.119751 634.736572,456.003357 
	C637.767090,464.841797 637.763977,464.842865 629.072937,469.346985 
	C638.474182,469.346985 646.689087,469.346985 654.903992,469.346985 
	C655.297119,468.860229 655.690308,468.373505 656.083435,467.886749 
	C645.115967,467.506317 644.198975,459.026428 641.596558,452.071045 
	C637.347229,440.714142 633.386658,429.249329 629.271545,417.841858 
	C628.687866,416.223755 627.921021,414.671753 626.678772,411.789276 
	C625.279785,414.619080 624.413757,416.132263 623.759949,417.732117 
	C619.800293,427.421387 616.295959,437.322388 611.837769,446.774445 
	C608.014954,454.879150 607.912720,465.701385 596.984375,469.293030 
	C603.590149,469.293030 610.195984,469.293030 618.102234,469.293030 
	C609.239746,464.820343 609.239746,464.820343 612.403625,456.174042 
	C615.519226,447.659271 615.519226,447.659271 628.266357,447.703857 
M820.678406,437.501953 
	C820.678772,433.839661 820.900391,430.160858 820.627991,426.518951 
	C820.209167,420.919220 821.567810,416.977356 828.074707,416.729645 
	C828.530151,416.712341 828.956970,415.943665 830.140198,414.816467 
	C820.711670,414.816467 812.201477,414.816467 802.375793,414.816467 
	C804.133423,416.010101 804.741333,416.775299 805.380127,416.802032 
	C811.463135,417.056244 812.484863,420.784637 812.361511,425.965332 
	C812.127625,435.781281 812.290771,445.606812 812.296997,455.428345 
	C812.302979,464.806580 812.306030,464.803070 803.959839,468.247406 
	C803.825684,468.302734 803.883667,468.823578 803.831360,469.325226 
	C812.312683,469.325226 820.755310,469.325226 829.649170,469.325226 
	C829.004517,468.410889 828.878235,468.052277 828.631165,467.920990 
	C828.201599,467.692780 827.704407,467.508362 827.223328,467.473175 
	C821.856934,467.080597 820.439758,463.886139 820.620972,458.974182 
	C820.872375,452.158386 820.680542,445.326294 820.678406,437.501953 
M854.520447,291.742981 
	C854.553040,288.256256 854.963013,284.712860 854.451843,281.307770 
	C854.212585,279.714050 852.330505,277.313568 850.957153,277.139557 
	C846.708496,276.601166 842.335754,276.775055 838.032104,277.028137 
	C835.078735,277.201813 833.447144,278.541565 833.650330,282.186127 
	C834.318054,294.164825 834.151917,294.262848 846.578186,294.084625 
	C849.167847,294.047485 851.744202,293.087097 854.520447,291.742981 
z"/>
<path fill="#E03B2D" opacity="1.000000" stroke="none" 
	d="
M53.138775,340.652039 
	C54.766991,318.642700 64.558159,300.703461 81.386475,288.250244 
	C101.078812,273.677612 123.463814,268.838257 147.969101,277.237976 
	C168.560394,284.296051 182.901443,297.945465 191.779190,316.897064 
	C198.507980,331.261230 200.296524,346.835175 195.108826,362.642120 
	C186.408981,389.150635 172.435333,412.845520 156.902786,435.746887 
	C148.791107,447.706818 140.606842,459.617767 132.401184,471.513458 
	C131.105560,473.391724 129.522232,475.071472 127.652824,477.354889 
	C125.239990,474.635376 122.982277,472.473633 121.169205,469.987579 
	C104.136528,446.632629 85.774590,424.142334 72.241318,398.448547 
	C65.985016,386.570557 60.395950,374.241150 55.751976,361.656006 
	C53.418228,355.331604 53.875389,347.977325 53.138775,340.652039 
M96.233208,395.335632 
	C116.360245,407.709106 141.622787,405.831604 161.894196,390.240082 
	C188.132736,370.059082 187.171402,333.142365 173.012543,313.825470 
	C154.906372,289.123230 122.949142,280.994110 95.445564,297.427551 
	C76.571480,308.704895 67.141556,326.272369 67.602158,347.759949 
	C68.037331,368.061859 77.917671,384.193604 96.233208,395.335632 
z"/>
<path fill="#DE3E31" opacity="1.000000" stroke="none" 
	d="
M691.136353,335.556458 
	C693.265015,335.566223 694.932068,335.531830 696.596252,335.584412 
	C703.702454,335.809052 704.617188,337.154205 702.087769,343.673859 
	C699.338501,350.760101 694.463074,355.343658 687.114563,357.851898 
	C671.674927,363.121765 654.630249,359.734131 645.247498,349.016663 
	C632.515564,334.473541 639.494202,307.857208 657.557617,301.451080 
	C668.008179,297.744781 678.089050,298.409760 688.203674,302.559418 
	C700.308228,307.525513 703.796814,317.720276 703.165894,329.161377 
	C702.958557,332.922150 700.003174,331.995209 697.920166,331.985168 
	C687.262878,331.933746 676.606873,331.676605 665.949646,331.563965 
	C659.961609,331.500641 659.012268,332.781860 662.384338,337.760956 
	C664.014771,340.168427 667.322205,342.696442 670.000549,342.846527 
	C674.124451,343.077606 679.292725,344.531158 681.929810,338.295227 
	C682.699951,336.474121 687.643005,336.417664 691.136353,335.556458 
M663.789368,316.734772 
	C662.560181,317.874420 661.331055,319.014099 660.101868,320.153748 
	C660.261841,320.554840 660.421814,320.955902 660.581726,321.356995 
	C667.564453,321.356995 674.547180,321.356995 681.529846,321.356995 
	C681.830383,320.824860 682.130859,320.292755 682.431335,319.760620 
	C680.729187,318.545868 679.116821,316.478546 677.306763,316.287842 
	C673.098999,315.844543 668.795837,316.306213 663.789368,316.734772 
z"/>
<path fill="#DE3E31" opacity="1.000000" stroke="none" 
	d="
M808.747620,348.101685 
	C804.217407,360.240356 804.217407,360.240356 791.914673,360.216949 
	C781.630737,360.197388 781.814575,360.133606 778.376038,350.221741 
	C773.093140,334.993225 767.563721,319.849640 762.059021,304.699066 
	C760.598755,300.679810 761.372009,299.290070 765.722412,298.938751 
	C766.219360,298.898590 766.721130,298.918457 767.220703,298.910522 
	C783.331055,298.654510 783.347778,298.649902 787.617615,314.127808 
	C788.944885,318.939301 790.088806,323.801971 791.453003,328.602448 
	C791.964722,330.403076 792.864075,332.093597 793.586731,333.834320 
	C794.141113,333.876587 794.695496,333.918854 795.249878,333.961121 
	C796.581909,329.724213 798.067383,325.528137 799.208862,321.240509 
	C800.791382,315.295715 801.911438,309.220917 803.677673,303.336273 
	C804.189026,301.632355 806.116272,299.300385 807.600891,299.137482 
	C812.199463,298.632843 816.904907,298.887939 821.554260,299.130035 
	C825.199280,299.319794 825.800964,301.312073 824.570679,304.627136 
	C819.250244,318.963379 814.097046,333.361725 808.747620,348.101685 
z"/>
<path fill="#DE3E31" opacity="1.000000" stroke="none" 
	d="
M601.972778,360.480316 
	C601.220154,360.345703 600.467590,360.211060 599.086121,359.857117 
	C590.600281,358.467865 583.303650,355.976135 577.195557,350.458649 
	C577.174866,350.284882 576.952026,350.015015 576.952637,349.653778 
	C576.113708,347.862335 574.993774,346.515656 574.533875,344.972290 
	C574.231140,343.956085 574.474670,342.240570 575.174988,341.559357 
	C577.593689,339.206909 590.984436,339.655548 592.669861,342.399231 
	C595.342163,346.749359 599.257996,347.349487 603.472900,346.718353 
	C606.310364,346.293457 611.236206,344.956329 611.329468,343.730774 
	C611.666382,339.300507 607.264832,339.034607 603.955933,338.146484 
	C596.305847,336.093231 588.659546,334.026123 580.925110,331.841553 
	C580.838501,331.718445 580.545471,331.649811 580.432373,331.310852 
	C571.625000,322.142517 575.408875,307.452423 584.121155,303.739136 
	C596.238464,298.574554 608.451965,297.878418 620.335815,303.724091 
	C623.922485,305.488373 626.838867,309.225189 629.223511,312.643555 
	C631.413208,315.782349 629.903198,317.901855 625.963318,318.108551 
	C622.473877,318.291656 618.945068,318.497589 615.485657,318.160004 
	C613.701660,317.985931 611.649719,317.032135 610.383728,315.765869 
	C607.130249,312.511749 600.535217,310.910248 596.838745,313.149719 
	C595.831604,313.759949 594.820557,315.033630 594.659302,316.127838 
	C594.556946,316.822083 595.871338,318.122620 596.810669,318.495697 
	C599.269775,319.472290 601.843079,320.209717 604.423157,320.822632 
	C608.947327,321.897461 613.556152,322.635406 618.048035,323.822968 
	C627.780884,326.396210 631.008667,330.346954 631.137817,339.373230 
	C631.265808,348.322815 627.090027,354.187653 618.428406,356.812439 
	C614.039673,358.142365 609.540039,359.106598 604.697083,360.153198 
	C603.526672,360.206909 602.749695,360.343628 601.972778,360.480316 
z"/>
<path fill="#DE3E31" opacity="1.000000" stroke="none" 
	d="
M712.887512,327.998993 
	C712.820129,319.674255 712.893738,311.844727 712.618835,304.027527 
	C712.496277,300.545166 713.922180,299.099335 717.179810,299.012482 
	C718.677673,298.972504 720.176208,298.954132 721.674500,298.936310 
	C730.052002,298.836609 730.175476,298.921082 732.466187,306.814453 
	C734.036621,305.614441 735.372986,304.547882 736.757202,303.547546 
	C738.356750,302.391663 739.849792,300.758759 741.646484,300.259949 
	C751.752991,297.453888 754.393066,298.402100 754.164429,308.384094 
	C754.141541,309.382385 754.188110,310.382141 754.175720,311.380890 
	C754.081116,318.999176 754.079041,318.999146 746.438049,319.161896 
	C739.640320,319.306671 735.461487,322.792480 735.060120,329.662384 
	C734.585083,337.793243 734.603088,345.967377 734.767639,354.115509 
	C734.862427,358.815002 733.278748,360.816559 728.403870,360.298584 
	C724.777466,359.913300 721.081543,360.020233 717.423889,360.136658 
	C713.685608,360.255707 712.540649,358.592926 712.646912,354.969604 
	C712.905762,346.151398 712.828552,337.323334 712.887512,327.998993 
z"/>
<path fill="#F8ECEA" opacity="1.000000" stroke="none" 
	d="
M522.311768,359.704987 
	C517.789734,358.522858 513.276245,357.306335 508.739624,356.182922 
	C507.606262,355.902222 505.556427,355.483856 505.355560,355.870514 
	C503.363037,359.705994 501.670776,363.697449 499.430267,368.673828 
	C498.126801,368.304474 495.851257,367.217468 493.526489,367.099365 
	C489.542511,366.896881 485.545685,367.471680 483.215698,362.984131 
	C482.889465,362.355865 480.210236,362.013672 479.743591,362.538269 
	C474.918823,367.962616 471.761505,361.890594 468.129639,360.727905 
	C465.796875,359.981079 463.806244,357.547424 462.156586,355.476166 
	C460.781433,353.749512 460.192230,351.413788 459.111542,349.425720 
	C458.781677,348.818848 457.976715,348.470276 457.086975,347.763062 
	C455.836182,351.682983 454.713379,355.201752 453.431641,359.218689 
	C453.807343,359.555145 454.652740,360.078033 455.161072,360.829071 
	C455.743561,361.689545 456.026917,362.752502 456.440247,363.727509 
	C455.420044,364.035126 454.418060,364.497101 453.376038,364.620239 
	C450.677246,364.939087 447.963318,365.148010 445.250336,365.321594 
	C443.834534,365.412201 442.006744,365.903595 441.058044,365.233246 
	C437.531250,362.740997 435.627747,364.202179 434.744659,366.517761 
	C431.802734,366.236847 429.466125,365.710938 427.176941,365.869507 
	C424.115875,366.081573 419.955933,362.464264 421.365479,359.920715 
	C424.562347,354.152008 420.820282,355.166107 417.352051,355.493469 
	C416.493225,350.811676 417.168640,347.038300 421.787872,344.654633 
	C422.505829,344.284180 422.983276,342.711487 422.943329,341.720001 
	C422.423279,328.806702 421.729340,315.900299 421.242828,302.985931 
	C421.159210,300.766968 421.864685,298.522858 422.155029,296.283813 
	C422.413818,294.287872 422.602448,292.282837 422.822021,290.281799 
	C422.284790,290.191681 421.747589,290.101532 421.210358,290.011383 
	C420.464569,291.306274 419.718750,292.601196 418.838654,294.129242 
	C417.935699,293.611511 416.783264,293.333649 416.666992,292.820862 
	C415.997101,289.865479 415.357910,286.867065 415.181671,283.855530 
	C415.120850,282.815826 416.248566,281.496399 417.176056,280.707703 
	C417.573303,280.369934 419.303619,280.797211 419.618896,281.343750 
	C420.165161,282.290649 420.117279,283.596985 420.250092,284.760376 
	C420.354248,285.673035 420.355011,286.597504 420.401672,287.516724 
	C421.239471,286.947388 422.427216,286.565094 422.850067,285.773956 
	C424.166290,283.311523 424.599609,279.362244 426.500214,278.516052 
	C428.355255,277.690125 431.544128,280.528107 434.236389,280.770691 
	C439.274353,281.224609 444.376495,280.981598 449.452057,280.997894 
	C455.448273,281.017120 461.448822,280.870087 467.438934,281.062378 
	C470.354980,281.155975 472.756409,280.474701 472.421082,277.352783 
	C472.308380,276.303467 469.334869,275.501160 467.609344,274.717224 
	C466.987732,274.434814 466.191254,274.537323 465.540649,274.080597 
	C471.027130,271.421112 475.325500,273.954987 479.187439,277.105164 
	C479.045227,278.895111 478.917725,280.499725 478.790222,282.104370 
	C480.338165,282.094360 482.065430,282.507416 483.381104,281.949554 
	C484.578705,281.441772 485.329437,279.879852 487.109619,277.818817 
	C488.103241,281.324554 488.529907,284.966187 490.148346,287.964478 
	C491.914398,291.236176 494.784485,293.911957 497.646912,297.429413 
	C497.918945,297.517303 499.202362,297.931976 500.485779,298.346680 
	C499.687531,299.421387 498.810974,300.448364 498.117523,301.586914 
	C497.624634,302.396149 497.378693,303.355804 497.017975,305.067078 
	C497.315857,312.164917 496.248932,318.042145 491.652283,323.042725 
	C486.593201,328.448669 485.432007,333.349731 488.362823,336.303864 
	C491.957336,339.927002 495.701019,343.402130 499.225159,346.792053 
	C495.935608,352.422455 496.145813,352.639893 504.367859,353.306549 
	C505.004730,351.839813 505.629730,350.400452 506.526947,349.122314 
	C510.665649,351.736542 514.532104,354.189545 518.758911,356.693878 
	C520.057556,356.993561 520.995850,357.241943 521.921265,357.775879 
	C522.042786,358.609344 522.177246,359.157166 522.311768,359.704987 
M464.658325,345.806183 
	C464.839294,346.271637 465.075500,346.723602 465.193176,347.204590 
	C467.883270,358.198700 474.958679,361.865997 485.755859,359.861786 
	C489.041748,359.251862 492.484009,359.484406 497.026733,359.277802 
	C491.278992,348.117249 486.155640,338.169098 480.931854,328.025909 
	C482.544739,326.975861 483.823944,326.240936 484.996246,325.363190 
	C490.520081,321.227417 494.673004,316.193268 495.097198,308.947510 
	C495.923279,294.836700 485.595886,284.049591 470.766968,283.817078 
	C458.115631,283.618713 445.458649,283.776459 432.804169,283.783142 
	C424.892487,283.787354 424.902161,283.792084 425.449463,291.936859 
	C425.538635,293.263611 425.515228,294.599060 425.516174,295.930481 
	C425.530060,315.411255 425.622101,334.892670 425.479095,354.372314 
	C425.450714,358.235809 426.749817,359.895172 430.603973,359.807861 
	C434.930084,359.709869 439.264709,359.732635 443.588928,359.888641 
	C446.989960,360.011353 448.447723,358.545258 448.391785,355.175415 
	C448.286743,348.849884 448.502899,342.513153 448.207458,336.198761 
	C448.020355,332.200134 450.092651,331.271729 453.361847,331.331024 
	C456.661194,331.390869 459.032074,332.771454 460.300873,336.005524 
	C461.513702,339.096832 462.979523,342.088867 464.658325,345.806183 
M451.988403,338.662689 
	C452.666016,340.072510 453.343597,341.482300 454.021210,342.892120 
	C455.007172,341.585968 456.615417,340.363525 456.805420,338.950348 
	C456.998535,337.514252 455.793213,335.890106 455.200256,334.348297 
	C454.131042,335.509155 453.061798,336.670013 451.988403,338.662689 
z"/>
<path fill="#121212" opacity="1.000000" stroke="none" 
	d="
M736.970398,439.347229 
	C736.433105,445.780365 736.009155,451.763855 735.383972,457.726257 
	C734.640381,464.818329 735.169678,465.695557 741.973450,467.502594 
	C742.679077,467.690002 743.335266,468.063873 743.884155,469.308105 
	C736.493286,469.308105 729.102478,469.308105 721.542236,469.308105 
	C721.808533,468.603516 721.896179,468.082245 722.025085,468.071808 
	C729.695801,467.451324 731.445984,462.539856 731.871155,455.765686 
	C732.496399,445.801819 734.004150,435.896423 734.960938,425.949249 
	C735.627625,419.017273 735.292175,418.752106 728.288391,416.840515 
	C727.593079,416.650726 727.001587,416.080292 725.028015,414.865479 
	C731.824890,414.865479 737.158813,414.865479 743.037354,414.865479 
	C748.385315,428.703156 753.928345,443.045593 759.920105,458.549225 
	C763.516174,449.626343 766.659485,441.843903 769.789062,434.055908 
	C772.021790,428.499756 774.031799,422.839111 776.596985,417.441742 
	C777.268250,416.029358 779.575256,414.736298 781.241028,414.582764 
	C785.569336,414.183899 789.958740,414.448730 794.984375,414.448730 
	C794.079590,415.783173 793.895874,416.403809 793.529175,416.543304 
	C785.715332,419.515564 785.708984,419.505219 786.083435,427.716980 
	C786.546570,437.870850 787.196594,448.020782 787.406189,458.179810 
	C787.517761,463.585358 789.002808,467.273956 795.055237,467.597565 
	C795.498901,467.621277 795.931580,468.005768 796.349060,468.256439 
	C796.456421,468.320923 796.486206,468.514557 796.870239,469.302826 
	C787.989319,469.302826 779.417725,469.302826 770.786438,469.302826 
	C770.854675,468.692657 770.856018,468.410614 770.890930,468.406433 
	C779.772949,467.334259 779.497864,461.171082 778.982361,454.474396 
	C778.343262,446.171844 778.217468,437.830231 777.832397,429.507233 
	C777.776489,428.299164 777.511780,427.100769 776.333679,425.703674 
	C770.254089,440.853394 764.174500,456.003113 758.094971,471.152832 
	C757.562927,471.204834 757.030884,471.256866 756.498840,471.308899 
	C750.661987,456.559052 744.825195,441.809204 738.988403,427.059357 
	C738.660339,427.119781 738.332275,427.180206 738.004272,427.240601 
	C737.667725,431.123138 737.331238,435.005676 736.970398,439.347229 
z"/>
<path fill="#D46F64" opacity="1.000000" stroke="none" 
	d="
M338.295227,475.000153 
	C338.129730,485.653809 337.989655,495.807953 337.784424,505.960754 
	C337.722748,509.010681 336.924194,512.317871 333.191711,511.373291 
	C331.612030,510.973541 329.906219,507.524902 329.817719,505.397156 
	C329.444122,496.415680 329.655823,487.409790 329.657654,478.412811 
	C329.673248,402.435333 329.683960,326.457855 329.736328,250.480392 
	C329.737793,248.348679 329.854279,246.100220 330.545959,244.126541 
	C331.013367,242.792847 332.585846,241.846466 333.664062,240.726852 
	C334.999420,242.022232 337.010284,243.099640 337.514862,244.663116 
	C338.309479,247.125473 338.273560,249.914703 338.274689,252.565689 
	C338.306000,326.543823 338.297546,400.521973 338.295227,475.000153 
M331.960266,301.500000 
	C331.959717,367.780365 331.959076,434.060699 331.959198,500.341064 
	C331.959198,501.673279 331.663666,503.103424 332.052551,504.311981 
	C332.498840,505.698883 333.555328,506.889435 334.346771,508.165283 
	C334.770447,507.981079 335.194122,507.796844 335.617767,507.612610 
	C335.755035,506.349640 336.011932,505.086761 336.012451,503.823730 
	C336.048035,419.058228 336.072418,334.292725 336.003967,249.527267 
	C336.002747,248.015579 334.867859,246.504807 334.261932,244.993607 
	C333.496368,246.509323 332.079376,248.018906 332.065033,249.541702 
	C331.905029,266.526611 331.961670,283.513580 331.960266,301.500000 
z"/>
<path fill="#DE3E31" opacity="1.000000" stroke="none" 
	d="
M833.670044,302.755005 
	C835.023315,301.205383 836.300476,299.251953 837.768860,299.095673 
	C842.054138,298.639587 846.455750,298.564148 850.725220,299.070068 
	C852.159424,299.239990 854.438171,301.588623 854.458984,302.969666 
	C854.725281,320.628693 854.634033,338.292938 854.679749,355.955780 
	C854.687988,359.133911 853.328674,360.424347 850.102295,360.228210 
	C846.615845,360.016296 843.092896,359.977264 839.611267,360.222809 
	C835.050964,360.544495 833.552551,358.811462 833.619446,354.155640 
	C833.863525,337.164368 833.694580,320.167206 833.670044,302.755005 
z"/>
<path fill="#161616" opacity="1.000000" stroke="none" 
	d="
M711.258301,424.745392 
	C724.573181,442.339783 716.231201,465.970673 695.137878,468.848785 
	C682.978821,470.507904 670.408142,469.149902 657.399231,469.149902 
	C658.368286,468.425446 658.987610,467.566803 659.665161,467.518127 
	C665.385071,467.107208 666.532166,463.612976 666.435852,458.601349 
	C666.227783,447.777863 666.207397,436.944031 666.442444,426.121643 
	C666.556458,420.874420 665.288818,417.312073 659.366638,416.940765 
	C658.756165,416.902496 658.191101,416.140808 657.243958,415.452332 
	C672.410645,414.942902 687.188110,412.205566 701.399231,417.596741 
	C704.962463,418.948456 707.826416,422.143341 711.258301,424.745392 
M693.224792,466.128845 
	C705.874084,461.087036 711.640625,447.753479 707.362305,433.439178 
	C703.768982,421.416351 691.991089,414.706573 679.009399,417.692200 
	C677.348083,418.074280 675.008362,420.581696 674.970764,422.152130 
	C674.648865,435.603027 674.650452,449.068115 674.972961,462.518951 
	C675.009155,464.028473 677.530090,466.588715 679.085693,466.740051 
	C683.487244,467.168274 687.986023,466.598053 693.224792,466.128845 
z"/>
<path fill="#121212" opacity="1.000000" stroke="none" 
	d="
M555.648193,450.476929 
	C553.175964,446.567200 550.825439,443.116150 545.177246,444.365082 
	C545.177246,450.416962 544.903625,456.532074 545.367065,462.590790 
	C545.484802,464.130463 547.770142,465.747894 549.386414,466.850220 
	C550.616943,467.689453 552.364746,467.770203 553.715027,469.323547 
	C545.266296,469.323547 536.817505,469.323547 528.301636,469.323547 
	C528.413696,468.771362 528.408203,468.255859 528.541870,468.216797 
	C538.582153,465.283417 536.645447,464.857666 536.809875,455.868896 
	C536.992615,445.878845 536.680664,435.878815 536.919250,425.891113 
	C537.045288,420.614075 535.759644,417.031189 529.769836,416.814850 
	C529.338379,416.799255 528.909424,416.375305 528.507751,416.099792 
	C528.399536,416.025604 528.395874,415.799133 528.207581,415.228668 
	C528.957153,414.930206 529.734863,414.356354 530.517334,414.349884 
	C538.335449,414.285126 546.154480,414.299164 553.973083,414.330261 
	C555.300171,414.335541 556.637268,414.453247 557.951416,414.644623 
	C565.822876,415.790802 570.865112,419.974213 571.897034,426.163116 
	C572.924866,432.327240 569.965149,437.031616 562.557739,441.031921 
	C561.714355,441.487396 560.900085,441.996857 559.654114,442.726074 
	C564.423157,449.794739 568.706055,456.952972 573.873535,463.402466 
	C575.934509,465.974762 579.949768,466.981232 583.625732,469.003204 
	C582.591858,469.328522 581.715942,469.798401 580.820129,469.840118 
	C579.500732,469.901520 578.067200,469.282257 576.855713,469.604584 
	C568.678284,471.780457 564.875122,467.018280 561.758362,460.628906 
	C560.086731,457.202087 557.847900,454.051941 555.648193,450.476929 
M551.311890,441.348450 
	C552.136292,441.274689 552.966187,441.239410 553.784180,441.121246 
	C561.130798,440.060120 564.475464,434.256378 562.904663,425.317444 
	C561.821716,419.154907 556.519226,415.665894 549.854431,417.408173 
	C547.999756,417.892975 545.478210,420.309357 545.326843,422.022095 
	C544.779541,428.212280 545.111450,434.480164 545.111450,440.964752 
	C547.155945,441.128296 548.774597,441.257782 551.311890,441.348450 
z"/>
<path fill="#121212" opacity="1.000000" stroke="none" 
	d="
M847.581909,414.581421 
	C850.105042,415.505829 852.751953,415.949493 854.187012,417.508545 
	C864.895447,429.142609 875.361755,440.999451 885.911743,452.779510 
	C886.768738,453.736359 887.683838,454.641113 889.317078,456.349457 
	C889.558655,454.071350 889.816772,452.737122 889.822693,451.401794 
	C889.859009,443.243713 889.848755,435.085358 889.833130,426.927124 
	C889.818237,419.163177 889.483887,418.767334 881.936096,416.854919 
	C881.367065,416.710754 880.879517,416.244873 880.472046,415.034485 
	C887.881897,415.034485 895.291748,415.034485 903.092224,415.034485 
	C902.511475,415.824158 902.308472,416.423218 901.937683,416.557037 
	C893.602905,419.564636 893.547729,419.553955 893.382263,428.249146 
	C893.144714,440.733429 893.004272,453.219513 892.787415,465.704254 
	C892.757202,467.447632 892.528870,469.187592 892.392212,470.929169 
	C891.972534,471.105347 891.552795,471.281525 891.133118,471.457703 
	C877.532471,456.151245 863.931824,440.844788 850.331177,425.538330 
	C849.879517,425.655518 849.427795,425.772736 848.976135,425.889954 
	C848.976135,431.256409 849.006042,436.623047 848.967834,441.989227 
	C848.928711,447.483215 849.038452,452.990723 848.683533,458.466400 
	C848.351135,463.592316 849.804138,466.922943 855.418640,467.430298 
	C856.258850,467.506165 857.051758,468.104340 857.713562,469.385925 
	C850.350159,469.385925 842.986816,469.385925 834.261108,469.385925 
	C836.065308,468.337524 836.742737,467.630249 837.474854,467.568207 
	C843.193665,467.083679 844.843567,463.610748 844.944519,458.393372 
	C845.150696,447.743225 845.708557,437.100372 846.031738,426.451813 
	C846.257507,419.014526 846.080566,418.874695 838.931396,416.898499 
	C838.318176,416.729004 837.718018,416.430878 837.192017,416.074249 
	C837.019043,415.956970 837.099670,415.465759 837.005981,414.617157 
	C840.412292,414.617157 843.778381,414.617157 847.581909,414.581421 
z"/>
<path fill="#121212" opacity="1.000000" stroke="none" 
	d="
M468.633270,459.354462 
	C459.318329,442.825043 463.938141,424.099213 478.939789,416.349945 
	C492.221008,409.489380 510.351471,413.973328 518.005127,426.011505 
	C525.989441,438.569672 522.980957,456.593506 511.398163,465.593536 
	C499.220154,475.056122 479.552032,472.298828 468.633270,459.354462 
M508.589020,424.098938 
	C500.768188,412.548615 483.292969,412.587555 476.238464,426.461304 
	C471.054779,436.655762 471.019806,447.394592 475.949707,457.701202 
	C479.451141,465.021454 485.634918,468.914246 494.044006,468.473145 
	C502.673126,468.020569 508.346924,463.291748 511.168823,455.473602 
	C514.943481,445.015808 514.646912,434.627441 508.589020,424.098938 
z"/>
<path fill="#161616" opacity="1.000000" stroke="none" 
	d="
M431.723175,447.030090 
	C431.722656,451.522369 431.906616,455.529907 431.676941,459.513611 
	C431.414062,464.073242 432.922638,466.918304 437.797058,467.393829 
	C438.691772,467.481140 439.541443,468.029968 440.326294,469.307739 
	C431.863373,469.307739 423.400421,469.307739 414.001862,469.307739 
	C415.200989,468.392090 415.727905,467.643616 416.306030,467.601715 
	C422.115112,467.180389 423.573517,463.812073 423.435242,458.466278 
	C423.155396,447.648285 423.206116,436.815063 423.419403,425.993958 
	C423.521423,420.818970 422.453796,417.103333 416.407257,416.821106 
	C415.793030,416.792419 415.213837,416.012848 413.547760,414.806702 
	C428.283234,414.806702 441.770569,414.806702 455.815399,414.806702 
	C456.701721,418.536102 457.674316,422.628571 458.958618,428.032440 
	C457.257355,426.736969 456.386169,426.383820 456.012421,425.741333 
	C451.948090,418.754639 441.879791,414.947845 434.579590,417.991699 
	C433.367645,418.497070 432.006042,420.339600 431.946075,421.621826 
	C431.667542,427.577820 431.822784,433.554077 431.822784,439.506897 
	C444.885773,439.815308 444.308868,441.969879 449.585571,431.164856 
	C449.585571,437.997314 449.585571,444.829773 449.585571,451.637115 
	C447.562622,448.820862 446.093903,444.874207 443.323547,443.437561 
	C440.368164,441.904968 436.182861,442.744049 432.118561,442.525391 
	C431.971130,444.027100 431.848022,445.280945 431.723175,447.030090 
z"/>
<path fill="#161616" opacity="1.000000" stroke="none" 
	d="
M627.797363,447.705322 
	C615.519226,447.659271 615.519226,447.659271 612.403625,456.174042 
	C609.239746,464.820343 609.239746,464.820343 618.102234,469.293030 
	C610.195984,469.293030 603.590149,469.293030 596.984375,469.293030 
	C607.912720,465.701385 608.014954,454.879150 611.837769,446.774445 
	C616.295959,437.322388 619.800293,427.421387 623.759949,417.732117 
	C624.413757,416.132263 625.279785,414.619080 626.678772,411.789276 
	C627.921021,414.671753 628.687866,416.223755 629.271545,417.841858 
	C633.386658,429.249329 637.347229,440.714142 641.596558,452.071045 
	C644.198975,459.026428 645.115967,467.506317 656.083435,467.886749 
	C655.690308,468.373505 655.297119,468.860229 654.903992,469.346985 
	C646.689087,469.346985 638.474182,469.346985 629.072937,469.346985 
	C637.763977,464.842865 637.767090,464.841797 634.736572,456.003357 
	C634.090698,454.119751 633.773621,451.979492 632.639404,450.451599 
	C631.683105,449.163422 629.760986,448.592346 627.797363,447.705322 
M627.027832,433.480225 
	C626.163086,431.095215 625.298279,428.710205 623.928650,424.932953 
	C621.174133,432.454773 618.962891,438.493164 616.566162,445.037964 
	C620.425354,445.037964 623.550659,445.057770 626.675415,445.027405 
	C627.802124,445.016449 628.927551,444.885010 630.733521,444.762390 
	C629.512756,441.038025 628.399475,437.641418 627.027832,433.480225 
z"/>
<path fill="#FBF7F6" opacity="1.000000" stroke="none" 
	d="
M576.952026,350.015015 
	C576.952026,350.015015 577.174866,350.284882 577.133423,350.845581 
	C577.448242,352.251648 577.577637,353.572296 578.196411,353.867584 
	C583.415222,356.358124 588.723511,358.661163 594.004883,361.020569 
	C594.147217,362.806366 594.289551,364.592194 594.431458,366.373108 
	C586.746216,367.959808 585.719299,367.486267 584.538818,361.276978 
	C578.212830,359.302155 571.654724,357.087952 564.980957,355.307709 
	C563.591614,354.937103 561.780640,356.196442 560.150940,356.658875 
	C559.212585,356.925140 558.248230,357.099701 557.269104,356.741638 
	C562.047180,351.925110 565.999634,347.115540 567.481873,340.680511 
	C568.024475,338.325043 568.588257,335.531586 565.215149,335.255157 
	C559.648438,334.798950 554.025635,334.741211 548.443237,334.954559 
	C546.941589,335.011932 544.916565,336.309875 544.135376,337.631561 
	C541.157166,342.669891 536.511169,342.395050 531.874329,341.839722 
	C527.218445,341.282135 526.404846,337.301880 524.886841,333.150879 
	C526.990417,333.025940 528.576294,332.850586 530.162170,332.850739 
	C540.314087,332.851624 550.466064,332.881500 560.617920,332.921387 
	C566.737061,332.945435 567.128967,332.699738 566.948853,326.423981 
	C566.849731,322.968231 566.191528,319.528564 565.785339,316.081665 
	C567.988342,315.096619 570.191406,314.111572 572.736328,313.540649 
	C573.065002,316.101685 572.922546,318.257111 573.063599,320.393860 
	C573.430664,325.956268 576.687256,330.760742 580.545471,331.649811 
	C580.545471,331.649811 580.838501,331.718445 580.948303,332.207703 
	C582.047668,334.069550 583.037231,335.442108 584.735596,337.797821 
	C579.223633,338.216888 573.688904,337.061096 570.783752,343.606628 
	C572.649292,345.544769 574.800659,347.779877 576.952026,350.015015 
z"/>
<path fill="#161616" opacity="1.000000" stroke="none" 
	d="
M820.678406,438.001556 
	C820.680542,445.326294 820.872375,452.158386 820.620972,458.974182 
	C820.439758,463.886139 821.856934,467.080597 827.223328,467.473175 
	C827.704407,467.508362 828.201599,467.692780 828.631165,467.920990 
	C828.878235,468.052277 829.004517,468.410889 829.649170,469.325226 
	C820.755310,469.325226 812.312683,469.325226 803.831360,469.325226 
	C803.883667,468.823578 803.825684,468.302734 803.959839,468.247406 
	C812.306030,464.803070 812.302979,464.806580 812.296997,455.428345 
	C812.290771,445.606812 812.127625,435.781281 812.361511,425.965332 
	C812.484863,420.784637 811.463135,417.056244 805.380127,416.802032 
	C804.741333,416.775299 804.133423,416.010101 802.375793,414.816467 
	C812.201477,414.816467 820.711670,414.816467 830.140198,414.816467 
	C828.956970,415.943665 828.530151,416.712341 828.074707,416.729645 
	C821.567810,416.977356 820.209167,420.919220 820.627991,426.518951 
	C820.900391,430.160858 820.678772,433.839661 820.678406,438.001556 
z"/>
<path fill="#F4D3CF" opacity="1.000000" stroke="none" 
	d="
M580.432373,331.310852 
	C576.687256,330.760742 573.430664,325.956268 573.063599,320.393860 
	C572.922546,318.257111 573.065002,316.101685 573.101440,313.508057 
	C574.437134,310.660217 575.749695,308.259094 577.412476,305.432007 
	C581.507935,303.022827 585.253174,301.039581 588.998474,299.056366 
	C589.444885,299.061798 589.891357,299.067169 591.071350,299.057831 
	C597.868164,298.381104 603.931458,297.719116 609.994690,297.057129 
	C610.467163,297.324615 610.939697,297.592102 611.918030,298.230804 
	C617.911743,300.418304 623.399597,302.234650 628.887451,304.050964 
	C629.473328,306.223450 629.815491,308.500244 630.692322,310.548218 
	C632.999084,315.936340 632.256775,318.004822 627.096741,320.160309 
	C624.602966,321.202026 624.197327,322.591949 626.630554,324.454742 
	C634.233948,330.275604 635.149841,338.028534 632.593994,346.581207 
	C630.414917,353.873596 621.679565,360.451050 612.977783,360.972198 
	C609.796204,360.734100 607.443359,360.485138 605.090576,360.236145 
	C609.540039,359.106598 614.039673,358.142365 618.428406,356.812439 
	C627.090027,354.187653 631.265808,348.322815 631.137817,339.373230 
	C631.008667,330.346954 627.780884,326.396210 618.048035,323.822968 
	C613.556152,322.635406 608.947327,321.897461 604.423157,320.822632 
	C601.843079,320.209717 599.269775,319.472290 596.810669,318.495697 
	C595.871338,318.122620 594.556946,316.822083 594.659302,316.127838 
	C594.820557,315.033630 595.831604,313.759949 596.838745,313.149719 
	C600.535217,310.910248 607.130249,312.511749 610.383728,315.765869 
	C611.649719,317.032135 613.701660,317.985931 615.485657,318.160004 
	C618.945068,318.497589 622.473877,318.291656 625.963318,318.108551 
	C629.903198,317.901855 631.413208,315.782349 629.223511,312.643555 
	C626.838867,309.225189 623.922485,305.488373 620.335815,303.724091 
	C608.451965,297.878418 596.238464,298.574554 584.121155,303.739136 
	C575.408875,307.452423 571.625000,322.142517 580.432373,331.310852 
z"/>
<path fill="#EAB4B0" opacity="1.000000" stroke="none" 
	d="
M565.573486,315.826416 
	C566.191528,319.528564 566.849731,322.968231 566.948853,326.423981 
	C567.128967,332.699738 566.737061,332.945435 560.617920,332.921387 
	C550.466064,332.881500 540.314087,332.851624 530.162170,332.850739 
	C528.576294,332.850586 526.990417,333.025940 524.886841,333.150879 
	C526.404846,337.301880 527.218445,341.282135 531.874329,341.839722 
	C536.511169,342.395050 541.157166,342.669891 544.135376,337.631561 
	C544.916565,336.309875 546.941589,335.011932 548.443237,334.954559 
	C554.025635,334.741211 559.648438,334.798950 565.215149,335.255157 
	C568.588257,335.531586 568.024475,338.325043 567.481873,340.680511 
	C565.999634,347.115540 562.047180,351.925110 557.084229,356.439026 
	C554.420410,357.573059 551.914917,358.435760 548.829651,359.569550 
	C547.484436,360.138092 546.718994,360.435577 545.953613,360.733093 
	C539.954163,360.786774 533.954712,360.840454 527.236206,360.641357 
	C525.376526,360.207794 524.235840,360.026978 523.095215,359.846191 
	C523.095215,359.846191 522.702148,359.769470 522.506958,359.737244 
	C522.177246,359.157166 522.042786,358.609344 522.299561,357.692261 
	C532.588928,360.653412 542.397278,359.982086 551.945374,356.165894 
	C560.232544,352.853699 564.418640,346.288330 565.770996,336.797577 
	C559.586975,336.797577 553.821899,336.713196 548.064697,336.886108 
	C547.173401,336.912872 546.084900,337.953247 545.481445,338.804169 
	C539.853455,346.740143 529.304443,346.281860 524.369629,337.829803 
	C521.434631,332.802887 522.450500,330.916473 528.270020,330.923645 
	C538.920837,330.936737 549.573425,331.177643 560.220276,331.008850 
	C561.840027,330.983185 564.729004,329.394257 564.833374,328.315613 
	C565.671814,319.656860 564.113220,311.630615 556.231628,306.354004 
	C547.543762,300.537537 537.924500,298.737335 527.676453,300.531158 
	C524.100220,301.157104 520.602539,302.231842 517.228088,302.783661 
	C521.926575,300.958191 526.465942,299.450623 531.005310,297.943085 
	C533.704651,297.976532 536.403992,298.010010 539.934814,298.080383 
	C543.725281,299.047241 546.636963,300.190247 549.653625,300.861420 
	C555.403931,302.140778 559.661865,305.285614 562.713684,310.259796 
	C563.206787,311.063477 564.123962,311.606873 564.845154,312.270599 
	C565.017273,313.370789 565.189392,314.470978 565.573486,315.826416 
z"/>
<path fill="#DE3E31" opacity="1.000000" stroke="none" 
	d="
M854.423584,292.147583 
	C851.744202,293.087097 849.167847,294.047485 846.578186,294.084625 
	C834.151917,294.262848 834.318054,294.164825 833.650330,282.186127 
	C833.447144,278.541565 835.078735,277.201813 838.032104,277.028137 
	C842.335754,276.775055 846.708496,276.601166 850.957153,277.139557 
	C852.330505,277.313568 854.212585,279.714050 854.451843,281.307770 
	C854.963013,284.712860 854.553040,288.256256 854.423584,292.147583 
z"/>
<path fill="#FBF7F6" opacity="1.000000" stroke="none" 
	d="
M530.956238,297.579590 
	C526.465942,299.450623 521.926575,300.958191 517.048950,302.864258 
	C516.710632,303.262756 516.322632,303.324982 515.988647,303.219635 
	C514.792908,303.424042 513.931091,303.733795 512.703613,304.033234 
	C511.591095,304.720093 510.844177,305.417267 510.096039,306.098419 
	C510.094818,306.082428 510.065552,306.094757 509.685669,306.070984 
	C508.550781,307.061920 507.795746,308.076599 506.809296,309.351257 
	C506.084625,311.449371 505.591431,313.287537 505.043854,315.464874 
	C504.785828,316.457306 504.582214,317.110565 504.055481,317.887939 
	C502.795013,322.343597 501.857697,326.675171 500.556702,330.996460 
	C499.508392,330.465424 498.426514,330.070892 498.213348,329.400269 
	C497.565918,327.363159 497.254303,325.219330 496.811920,323.117096 
	C496.395966,323.518829 495.980042,323.920563 495.564087,324.322296 
	C494.374451,323.876190 493.184784,323.430115 491.995117,322.984039 
	C496.248932,318.042145 497.315857,312.164917 497.019501,305.436829 
	C499.210236,306.595215 501.394897,308.202545 504.404236,310.416626 
	C504.514343,308.435333 505.007904,306.881958 504.603119,305.615753 
	C502.423187,298.796967 502.340179,298.807129 508.976166,296.029327 
	C510.024719,295.590454 511.155975,295.349121 512.689514,295.360168 
	C517.251465,298.179047 515.539307,294.458527 515.978027,293.022369 
	C517.773987,294.023102 519.570007,295.023865 521.365967,296.024628 
	C521.451904,297.172089 521.537842,298.319550 521.623840,299.467010 
	C522.492126,297.916504 523.360474,296.365997 524.778503,293.833954 
	C526.445618,294.753937 528.676392,295.985016 530.956238,297.579590 
M498.615204,320.810699 
	C498.064331,320.796539 497.510712,320.753357 496.966217,320.805695 
	C496.899841,320.812073 496.882812,321.331879 496.842926,321.613739 
	C497.418457,321.530670 497.994019,321.447601 498.615204,320.810699 
z"/>
<path fill="#FBF7F6" opacity="1.000000" stroke="none" 
	d="
M564.919312,311.903748 
	C564.123962,311.606873 563.206787,311.063477 562.713684,310.259796 
	C559.661865,305.285614 555.403931,302.140778 549.653625,300.861420 
	C546.636963,300.190247 543.725281,299.047241 540.384766,298.068665 
	C539.784180,294.976257 541.485352,293.301300 544.188904,294.104889 
	C550.054138,295.848236 555.749146,298.161316 561.525024,300.209595 
	C563.023804,300.741119 564.564148,301.155273 567.099182,301.935242 
	C566.114075,298.870392 565.615723,297.320068 565.117371,295.769775 
	C568.470703,300.153076 574.131042,303.801208 569.852783,309.440308 
	C568.233032,310.139191 566.613281,310.838074 564.919312,311.903748 
z"/>
<path fill="#FBFBFB" opacity="1.000000" stroke="none" 
	d="
M629.251526,303.978912 
	C623.399597,302.234650 617.911743,300.418304 612.167114,298.341309 
	C614.590027,294.322083 617.852417,294.101379 621.788086,296.121887 
	C623.633545,297.069275 625.989014,297.040802 627.804810,298.024231 
	C630.048035,299.239258 632.798340,300.801331 629.251526,303.978912 
z"/>
<path fill="#FBFBFB" opacity="1.000000" stroke="none" 
	d="
M588.939087,298.693848 
	C585.253174,301.039581 581.507935,303.022827 577.415527,305.069244 
	C578.076294,303.068665 579.084229,301.004883 580.423889,298.261810 
	C577.714844,297.681183 574.661011,297.026672 571.479980,296.344910 
	C577.474426,293.151489 580.878052,293.563080 588.939087,298.693848 
z"/>
<path fill="#FBFBFB" opacity="1.000000" stroke="none" 
	d="
M609.955200,296.681213 
	C603.931458,297.719116 597.868164,298.381104 591.406128,299.049316 
	C592.390137,292.967712 598.097717,294.237946 601.996460,293.303406 
	C604.266052,292.759430 607.252075,295.204926 609.955200,296.681213 
z"/>
<path fill="#FBF7F6" opacity="1.000000" stroke="none" 
	d="
M604.697083,360.153198 
	C607.443359,360.485138 609.796204,360.734100 612.572754,360.984955 
	C611.160645,363.199127 609.669189,365.894165 607.406494,367.507904 
	C604.204834,369.791260 602.059448,367.258545 601.977661,360.879730 
	C602.749695,360.343628 603.526672,360.206909 604.697083,360.153198 
z"/>
<path fill="#F4D3CF" opacity="1.000000" stroke="none" 
	d="
M594.382812,361.016144 
	C588.723511,358.661163 583.415222,356.358124 578.196411,353.867584 
	C577.577637,353.572296 577.448242,352.251648 577.154053,351.019348 
	C583.303650,355.976135 590.600281,358.467865 598.704102,359.928253 
	C597.554260,360.483063 596.157532,360.747375 594.382812,361.016144 
z"/>
<path fill="#FBF7F6" opacity="1.000000" stroke="none" 
	d="
M545.966797,361.159912 
	C546.718994,360.435577 547.484436,360.138092 548.570129,359.811890 
	C550.975281,361.354462 553.060059,362.925751 555.347656,364.649841 
	C554.347473,367.417725 552.796387,367.811462 545.519836,366.394623 
	C545.672485,364.799347 545.826172,363.193024 545.966797,361.159912 
z"/>
<path fill="#F8ECEA" opacity="1.000000" stroke="none" 
	d="
M523.059998,360.232422 
	C524.235840,360.026978 525.376526,360.207794 526.769592,360.625244 
	C525.937439,362.610748 525.233704,364.957214 523.669800,365.953796 
	C521.810486,367.138550 519.211975,367.163269 516.869141,366.501556 
	C518.921021,364.540619 520.972900,362.579681 523.059998,360.232422 
z"/>
<path fill="#F8ECEA" opacity="1.000000" stroke="none" 
	d="
M515.660156,293.045837 
	C515.539307,294.458527 517.251465,298.179047 513.072205,295.357483 
	C513.790344,294.363770 514.566345,293.716553 515.660156,293.045837 
z"/>
<path fill="#FBF7F6" opacity="1.000000" stroke="none" 
	d="
M95.903931,395.177063 
	C77.917671,384.193604 68.037331,368.061859 67.602158,347.759949 
	C67.141556,326.272369 76.571480,308.704895 95.445564,297.427551 
	C122.949142,280.994110 154.906372,289.123230 173.012543,313.825470 
	C187.171402,333.142365 188.132736,370.059082 161.894196,390.240082 
	C141.622787,405.831604 116.360245,407.709106 95.903931,395.177063 
M110.361244,340.671417 
	C111.356544,340.712158 112.352242,340.796143 113.347076,340.786896 
	C122.492538,340.701935 122.717682,340.706604 122.350029,349.548279 
	C122.134636,354.728485 120.949524,359.862793 120.486542,365.043335 
	C120.404022,365.966644 121.618774,367.765167 122.412270,367.875000 
	C125.697479,368.329590 127.878166,366.997040 127.827171,363.240997 
	C127.770737,359.084351 127.771477,354.926666 127.776871,350.769501 
	C127.789009,341.399536 127.796432,341.399475 137.070618,341.390381 
	C137.236649,341.390198 137.446014,341.462555 137.562027,341.387695 
	C138.836197,340.565430 140.095840,339.720612 141.359406,338.881897 
	C140.283447,337.794891 139.235596,335.798279 138.127075,335.764008 
	C128.834305,335.476654 119.529266,335.477295 110.231628,335.625061 
	C109.297905,335.639893 108.145737,337.078217 107.607246,338.120575 
	C107.431580,338.460632 108.885071,339.642273 110.361244,340.671417 
M89.042778,341.434937 
	C90.456650,348.982178 92.535599,350.767212 99.971077,350.818115 
	C108.494492,350.876465 108.350090,350.874512 108.235252,359.487640 
	C108.195221,362.490143 106.518486,366.087250 111.279419,369.403229 
	C111.845917,365.257751 112.711922,361.984650 112.665726,358.724487 
	C112.473053,345.126068 115.529228,345.457977 99.690216,346.201691 
	C96.110703,346.369781 93.913330,345.159912 93.297943,341.501312 
	C92.912155,339.207825 92.648804,336.863983 91.947403,334.664917 
	C91.552635,333.427246 90.379715,332.437744 89.557350,331.336456 
	C89.056770,331.538605 88.556190,331.740753 88.055618,331.942902 
	C88.336731,334.832916 88.617844,337.722900 89.042778,341.434937 
M162.563782,337.303253 
	C162.315460,335.044830 162.067139,332.786407 161.818817,330.527985 
	C161.045517,330.453461 160.272232,330.378967 159.498932,330.304443 
	C158.770142,333.126404 157.703125,335.910095 157.378998,338.777802 
	C156.562531,346.001343 155.910553,346.578888 148.752518,345.933929 
	C145.677979,345.656891 142.557709,345.887543 138.977661,345.887543 
	C139.589310,347.281006 139.659515,347.875397 139.991028,348.131378 
	C145.397491,352.305847 151.868607,351.524536 157.579453,350.225800 
	C159.646622,349.755707 160.522720,343.946991 161.883591,340.550751 
	C162.186768,339.794159 162.242691,338.938446 162.563782,337.303253 
z"/>
<path fill="#F4D3CF" opacity="1.000000" stroke="none" 
	d="
M664.160400,316.567932 
	C668.795837,316.306213 673.098999,315.844543 677.306763,316.287842 
	C679.116821,316.478546 680.729187,318.545868 682.431335,319.760620 
	C682.130859,320.292755 681.830383,320.824860 681.529846,321.356995 
	C674.547180,321.356995 667.564453,321.356995 660.581726,321.356995 
	C660.421814,320.955902 660.261841,320.554840 660.101868,320.153748 
	C661.331055,319.014099 662.560181,317.874420 664.160400,316.567932 
z"/>
<path fill="#F4D3CF" opacity="1.000000" stroke="none" 
	d="
M576.952637,349.653778 
	C574.800659,347.779877 572.649292,345.544769 570.783752,343.606628 
	C573.688904,337.061096 579.223633,338.216888 584.735596,337.797821 
	C583.037231,335.442108 582.047668,334.069550 581.034912,332.330811 
	C588.659546,334.026123 596.305847,336.093231 603.955933,338.146484 
	C607.264832,339.034607 611.666382,339.300507 611.329468,343.730774 
	C611.236206,344.956329 606.310364,346.293457 603.472900,346.718353 
	C599.257996,347.349487 595.342163,346.749359 592.669861,342.399231 
	C590.984436,339.655548 577.593689,339.206909 575.174988,341.559357 
	C574.474670,342.240570 574.231140,343.956085 574.533875,344.972290 
	C574.993774,346.515656 576.113708,347.862335 576.952637,349.653778 
M601.839966,344.069702 
	C604.084167,343.914551 606.328430,343.759399 608.572632,343.604248 
	C608.578125,343.111359 608.583557,342.618439 608.589050,342.125549 
	C603.974670,341.002319 599.360291,339.879089 594.745911,338.755859 
	C594.581421,339.324127 594.416931,339.892426 594.252441,340.460693 
	C596.500366,341.656738 598.748230,342.852814 601.839966,344.069702 
z"/>
<path fill="#E13C2F" opacity="1.000000" stroke="none" 
	d="
M464.496216,345.465363 
	C462.979523,342.088867 461.513702,339.096832 460.300873,336.005524 
	C459.032074,332.771454 456.661194,331.390869 453.361847,331.331024 
	C450.092651,331.271729 448.020355,332.200134 448.207458,336.198761 
	C448.502899,342.513153 448.286743,348.849884 448.391785,355.175415 
	C448.447723,358.545258 446.989960,360.011353 443.588928,359.888641 
	C439.264709,359.732635 434.930084,359.709869 430.603973,359.807861 
	C426.749817,359.895172 425.450714,358.235809 425.479095,354.372314 
	C425.622101,334.892670 425.530060,315.411255 425.516174,295.930481 
	C425.515228,294.599060 425.538635,293.263611 425.449463,291.936859 
	C424.902161,283.792084 424.892487,283.787354 432.804169,283.783142 
	C445.458649,283.776459 458.115631,283.618713 470.766968,283.817078 
	C485.595886,284.049591 495.923279,294.836700 495.097198,308.947510 
	C494.673004,316.193268 490.520081,321.227417 484.996246,325.363190 
	C483.823944,326.240936 482.544739,326.975861 480.931854,328.025909 
	C486.155640,338.169098 491.278992,348.117249 497.026733,359.277802 
	C492.484009,359.484406 489.041748,359.251862 485.755859,359.861786 
	C474.958679,361.865997 467.883270,358.198700 465.193176,347.204590 
	C465.075500,346.723602 464.839294,346.271637 464.496216,345.465363 
M451.953003,315.073822 
	C456.090729,315.086487 460.234863,315.248627 464.364471,315.071716 
	C468.920441,314.876617 471.093842,312.381378 471.087616,307.609009 
	C471.082214,303.478668 469.570862,300.475616 464.877045,300.273651 
	C461.570709,300.131317 458.225250,299.707977 454.966492,300.056885 
	C452.671997,300.302551 448.551147,301.723450 448.585144,302.466827 
	C448.777893,306.677673 445.753693,311.789215 451.953003,315.073822 
z"/>
<path fill="#E03B2D" opacity="1.000000" stroke="none" 
	d="
M504.378601,317.763824 
	C504.582214,317.110565 504.785828,316.457306 505.366150,315.374146 
	C507.623413,312.120941 509.503998,309.297668 511.561462,306.406738 
	C511.738342,306.339111 512.041931,306.110016 512.378174,306.091827 
	C513.917175,305.157410 515.119873,304.241180 516.322632,303.324982 
	C516.322632,303.324982 516.710632,303.262756 516.889771,303.182190 
	C520.602539,302.231842 524.100220,301.157104 527.676453,300.531158 
	C537.924500,298.737335 547.543762,300.537537 556.231628,306.354004 
	C564.113220,311.630615 565.671814,319.656860 564.833374,328.315613 
	C564.729004,329.394257 561.840027,330.983185 560.220276,331.008850 
	C549.573425,331.177643 538.920837,330.936737 528.270020,330.923645 
	C522.450500,330.916473 521.434631,332.802887 524.369629,337.829803 
	C529.304443,346.281860 539.853455,346.740143 545.481445,338.804169 
	C546.084900,337.953247 547.173401,336.912872 548.064697,336.886108 
	C553.821899,336.713196 559.586975,336.797577 565.770996,336.797577 
	C564.418640,346.288330 560.232544,352.853699 551.945374,356.165894 
	C542.397278,359.982086 532.588928,360.653412 522.312500,357.406677 
	C520.995850,357.241943 520.057556,356.993561 518.594177,356.403503 
	C509.988708,351.692169 504.548950,345.330017 504.057495,335.865967 
	C503.745300,329.853668 504.243683,323.799316 504.378601,317.763824 
M528.043518,316.589600 
	C527.708130,316.751221 527.372803,316.912872 526.321899,317.072296 
	C525.203613,318.217834 524.085327,319.363342 522.967041,320.508881 
	C523.157715,321.014404 523.348328,321.519958 523.538940,322.025482 
	C529.371521,322.025482 535.209473,322.160583 541.033142,321.931671 
	C542.512634,321.873535 543.946655,320.658203 545.401611,319.974579 
	C543.885559,318.831543 542.369568,317.688477 540.256287,316.298737 
	C539.829468,316.254181 539.402649,316.209625 538.451233,315.594208 
	C535.168640,315.906830 531.886047,316.219452 528.043518,316.589600 
z"/>
<path fill="#FBFBFB" opacity="1.000000" stroke="none" 
	d="
M491.652283,323.042725 
	C493.184784,323.430115 494.374451,323.876190 495.564087,324.322296 
	C495.980042,323.920563 496.395966,323.518829 496.811920,323.117096 
	C497.254303,325.219330 497.565918,327.363159 498.213348,329.400269 
	C498.426514,330.070892 499.508392,330.465424 500.602936,331.368652 
	C501.015900,332.500549 501.018951,333.249939 500.686035,334.047485 
	C500.558716,335.063477 500.767334,336.031281 500.983429,337.443817 
	C501.727600,341.188721 498.742218,346.139069 505.271332,347.150940 
	C505.765167,347.867126 506.009918,348.414093 506.254669,348.961060 
	C505.629730,350.400452 505.004730,351.839813 504.367859,353.306549 
	C496.145813,352.639893 495.935608,352.422455 499.225159,346.792053 
	C495.701019,343.402130 491.957336,339.927002 488.362823,336.303864 
	C485.432007,333.349731 486.593201,328.448669 491.652283,323.042725 
M492.647675,329.069122 
	C492.900055,329.960175 493.152466,330.851196 493.404846,331.742218 
	C493.979309,331.449158 494.553802,331.156097 495.128265,330.863037 
	C494.462311,330.110474 493.796326,329.357941 492.647675,329.069122 
z"/>
<path fill="#EAB4B0" opacity="1.000000" stroke="none" 
	d="
M506.526917,349.122314 
	C506.009918,348.414093 505.765167,347.867126 505.223938,346.774841 
	C503.939972,343.155090 502.952484,340.080658 501.950562,336.687500 
	C501.631378,335.578979 501.326660,334.789185 501.021973,333.999359 
	C501.018951,333.249939 501.015900,332.500549 500.966614,331.378906 
	C501.857697,326.675171 502.795013,322.343597 504.055481,317.887939 
	C504.243683,323.799316 503.745300,329.853668 504.057495,335.865967 
	C504.548950,345.330017 509.988708,351.692169 518.233887,356.352173 
	C514.532104,354.189545 510.665649,351.736542 506.526917,349.122314 
z"/>
<path fill="#FBFBFB" opacity="1.000000" stroke="none" 
	d="
M451.990479,338.246765 
	C453.061798,336.670013 454.131042,335.509155 455.200256,334.348328 
	C455.793213,335.890106 456.998535,337.514252 456.805420,338.950348 
	C456.615417,340.363525 455.007172,341.585968 454.021210,342.892120 
	C453.343597,341.482300 452.666016,340.072510 451.990479,338.246765 
z"/>
<path fill="#D33325" opacity="1.000000" stroke="none" 
	d="
M331.960083,301.000000 
	C331.961670,283.513580 331.905029,266.526611 332.065033,249.541702 
	C332.079376,248.018906 333.496368,246.509323 334.261932,244.993607 
	C334.867859,246.504807 336.002747,248.015579 336.003967,249.527267 
	C336.072418,334.292725 336.048035,419.058228 336.012451,503.823730 
	C336.011932,505.086761 335.755035,506.349640 335.617767,507.612610 
	C335.194122,507.796844 334.770447,507.981079 334.346771,508.165283 
	C333.555328,506.889435 332.498840,505.698883 332.052551,504.311981 
	C331.663666,503.103424 331.959198,501.673279 331.959198,500.341064 
	C331.959076,434.060699 331.959717,367.780365 331.960083,301.000000 
z"/>
<path fill="#FBFBFB" opacity="1.000000" stroke="none" 
	d="
M692.835632,466.274994 
	C687.986023,466.598053 683.487244,467.168274 679.085693,466.740051 
	C677.530090,466.588715 675.009155,464.028473 674.972961,462.518951 
	C674.650452,449.068115 674.648865,435.603027 674.970764,422.152130 
	C675.008362,420.581696 677.348083,418.074280 679.009399,417.692200 
	C691.991089,414.706573 703.768982,421.416351 707.362305,433.439178 
	C711.640625,447.753479 705.874084,461.087036 692.835632,466.274994 
z"/>
<path fill="#FBF7F6" opacity="1.000000" stroke="none" 
	d="
M550.852600,441.367859 
	C548.774597,441.257782 547.155945,441.128296 545.111450,440.964752 
	C545.111450,434.480164 544.779541,428.212280 545.326843,422.022095 
	C545.478210,420.309357 547.999756,417.892975 549.854431,417.408173 
	C556.519226,415.665894 561.821716,419.154907 562.904663,425.317444 
	C564.475464,434.256378 561.130798,440.060120 553.784180,441.121246 
	C552.966187,441.239410 552.136292,441.274689 550.852600,441.367859 
z"/>
<path fill="#FBFBFB" opacity="1.000000" stroke="none" 
	d="
M508.782532,424.416595 
	C514.646912,434.627441 514.943481,445.015808 511.168823,455.473602 
	C508.346924,463.291748 502.673126,468.020569 494.044006,468.473145 
	C485.634918,468.914246 479.451141,465.021454 475.949707,457.701202 
	C471.019806,447.394592 471.054779,436.655762 476.238464,426.461304 
	C483.292969,412.587555 500.768188,412.548615 508.782532,424.416595 
z"/>
<path fill="#F8ECEA" opacity="1.000000" stroke="none" 
	d="
M627.156982,433.862488 
	C628.399475,437.641418 629.512756,441.038025 630.733521,444.762390 
	C628.927551,444.885010 627.802124,445.016449 626.675415,445.027405 
	C623.550659,445.057770 620.425354,445.037964 616.566162,445.037964 
	C618.962891,438.493164 621.174133,432.454773 623.928650,424.932953 
	C625.298279,428.710205 626.163086,431.095215 627.156982,433.862488 
z"/>
<path fill="#EAB4B0" opacity="1.000000" stroke="none" 
	d="
M511.384583,306.474365 
	C509.503998,309.297668 507.623413,312.120941 505.420532,315.034973 
	C505.591431,313.287537 506.084625,311.449371 507.090881,309.219177 
	C508.424438,307.916321 509.244995,307.005554 510.065552,306.094757 
	C510.065552,306.094757 510.094818,306.082428 510.424988,306.161072 
	C510.964996,306.317902 511.174805,306.396149 511.384583,306.474365 
z"/>
<path fill="#EAB4B0" opacity="1.000000" stroke="none" 
	d="
M515.988647,303.219635 
	C515.119873,304.241180 513.917175,305.157410 512.436096,305.804688 
	C512.461609,305.038300 512.765442,304.540924 513.069275,304.043549 
	C513.931091,303.733795 514.792908,303.424042 515.988647,303.219635 
z"/>
<path fill="#F8ECEA" opacity="1.000000" stroke="none" 
	d="
M509.685669,306.070984 
	C509.244995,307.005554 508.424438,307.916321 507.322327,308.959229 
	C507.795746,308.076599 508.550781,307.061920 509.685669,306.070984 
z"/>
<path fill="#F8ECEA" opacity="1.000000" stroke="none" 
	d="
M512.703613,304.033234 
	C512.765442,304.540924 512.461609,305.038300 512.099854,305.822876 
	C512.041931,306.110016 511.738342,306.339111 511.561462,306.406738 
	C511.174805,306.396149 510.964996,306.317902 510.426208,306.177063 
	C510.844177,305.417267 511.591095,304.720093 512.703613,304.033234 
z"/>
<path fill="#FBFBFB" opacity="1.000000" stroke="none" 
	d="
M498.592377,321.087616 
	C497.994019,321.447601 497.418457,321.530670 496.842926,321.613708 
	C496.882812,321.331879 496.899841,320.812073 496.966217,320.805695 
	C497.510712,320.753357 498.064331,320.796539 498.592377,321.087616 
z"/>
<path fill="#D46F64" opacity="1.000000" stroke="none" 
	d="
M109.977356,340.555237 
	C108.885071,339.642273 107.431580,338.460632 107.607246,338.120575 
	C108.145737,337.078217 109.297905,335.639893 110.231628,335.625061 
	C119.529266,335.477295 128.834305,335.476654 138.127075,335.764008 
	C139.235596,335.798279 140.283447,337.794891 141.359406,338.881897 
	C140.095840,339.720612 138.836197,340.565430 137.562027,341.387695 
	C137.446014,341.462555 137.236649,341.390198 137.070618,341.390381 
	C127.796432,341.399475 127.789009,341.399536 127.776871,350.769501 
	C127.771477,354.926666 127.770737,359.084351 127.827171,363.240997 
	C127.878166,366.997040 125.697479,368.329590 122.412270,367.875000 
	C121.618774,367.765167 120.404022,365.966644 120.486542,365.043335 
	C120.949524,359.862793 122.134636,354.728485 122.350029,349.548279 
	C122.717682,340.706604 122.492538,340.701935 113.347076,340.786896 
	C112.352242,340.796143 111.356544,340.712158 109.977356,340.555237 
z"/>
<path fill="#D46F64" opacity="1.000000" stroke="none" 
	d="
M88.970871,341.023926 
	C88.617844,337.722900 88.336731,334.832916 88.055618,331.942902 
	C88.556190,331.740753 89.056770,331.538605 89.557350,331.336456 
	C90.379715,332.437744 91.552635,333.427246 91.947403,334.664917 
	C92.648804,336.863983 92.912155,339.207825 93.297943,341.501312 
	C93.913330,345.159912 96.110703,346.369781 99.690216,346.201691 
	C115.529228,345.457977 112.473053,345.126068 112.665726,358.724487 
	C112.711922,361.984650 111.845917,365.257751 111.279419,369.403229 
	C106.518486,366.087250 108.195221,362.490143 108.235252,359.487640 
	C108.350090,350.874512 108.494492,350.876465 99.971077,350.818115 
	C92.535599,350.767212 90.456650,348.982178 88.970871,341.023926 
z"/>
<path fill="#D46F64" opacity="1.000000" stroke="none" 
	d="
M162.488113,337.715820 
	C162.242691,338.938446 162.186768,339.794159 161.883591,340.550751 
	C160.522720,343.946991 159.646622,349.755707 157.579453,350.225800 
	C151.868607,351.524536 145.397491,352.305847 139.991028,348.131378 
	C139.659515,347.875397 139.589310,347.281006 138.977661,345.887543 
	C142.557709,345.887543 145.677979,345.656891 148.752518,345.933929 
	C155.910553,346.578888 156.562531,346.001343 157.378998,338.777802 
	C157.703125,335.910095 158.770142,333.126404 159.498932,330.304443 
	C160.272232,330.378967 161.045517,330.453461 161.818817,330.527985 
	C162.067139,332.786407 162.315460,335.044830 162.488113,337.715820 
z"/>
<path fill="#FBF7F6" opacity="1.000000" stroke="none" 
	d="
M601.418091,344.059265 
	C598.748230,342.852814 596.500366,341.656738 594.252441,340.460693 
	C594.416931,339.892426 594.581421,339.324127 594.745911,338.755859 
	C599.360291,339.879089 603.974670,341.002319 608.589050,342.125549 
	C608.583557,342.618439 608.578125,343.111359 608.572632,343.604248 
	C606.328430,343.759399 604.084167,343.914551 601.418091,344.059265 
z"/>
<path fill="#F8ECEA" opacity="1.000000" stroke="none" 
	d="
M451.508057,315.022827 
	C445.753693,311.789215 448.777893,306.677673 448.585144,302.466827 
	C448.551147,301.723450 452.671997,300.302551 454.966492,300.056885 
	C458.225250,299.707977 461.570709,300.131317 464.877045,300.273651 
	C469.570862,300.475616 471.082214,303.478668 471.087616,307.609009 
	C471.093842,312.381378 468.920441,314.876617 464.364471,315.071716 
	C460.234863,315.248627 456.090729,315.086487 451.508057,315.022827 
z"/>
<path fill="#EAB4B0" opacity="1.000000" stroke="none" 
	d="
M540.853516,316.545441 
	C542.369568,317.688477 543.885559,318.831543 545.401611,319.974548 
	C543.946655,320.658203 542.512634,321.873535 541.033142,321.931671 
	C535.209473,322.160583 529.371521,322.025482 523.538940,322.025482 
	C523.348328,321.519958 523.157715,321.014404 522.967041,320.508881 
	C524.085327,319.363342 525.203613,318.217834 526.676270,317.448364 
	C527.439392,318.670868 527.818726,320.234772 528.261353,320.252899 
	C532.716919,320.435089 537.182922,320.363800 542.237000,320.363800 
	C541.495483,318.317261 541.174500,317.431366 540.853516,316.545441 
z"/>
<path fill="#F8ECEA" opacity="1.000000" stroke="none" 
	d="
M540.554932,316.422089 
	C541.174500,317.431366 541.495483,318.317261 542.237000,320.363800 
	C537.182922,320.363800 532.716919,320.435089 528.261353,320.252899 
	C527.818726,320.234772 527.439392,318.670868 527.034058,317.449463 
	C527.372803,316.912872 527.708130,316.751221 528.784058,316.700104 
	C532.674988,316.595428 535.825378,316.380249 538.975830,316.165100 
	C539.402649,316.209625 539.829468,316.254181 540.554932,316.422089 
z"/>
<path fill="#EAB4B0" opacity="1.000000" stroke="none" 
	d="
M538.713501,315.879639 
	C535.825378,316.380249 532.674988,316.595428 529.063965,316.671326 
	C531.886047,316.219452 535.168640,315.906830 538.713501,315.879639 
z"/>
<path fill="#F8ECEA" opacity="1.000000" stroke="none" 
	d="
M501.964996,337.006256 
	C502.952484,340.080658 503.939972,343.155090 504.974854,346.605591 
	C498.742218,346.139069 501.727600,341.188721 501.230865,337.442078 
	C501.470825,336.995667 501.964996,337.006256 501.964996,337.006256 
z"/>
<path fill="#F8ECEA" opacity="1.000000" stroke="none" 
	d="
M492.889008,328.837280 
	C493.796326,329.357941 494.462311,330.110474 495.128265,330.863037 
	C494.553802,331.156097 493.979309,331.449158 493.404846,331.742218 
	C493.152466,330.851196 492.900055,329.960175 492.889008,328.837280 
z"/>
<path fill="#FBF7F6" opacity="1.000000" stroke="none" 
	d="
M501.950562,336.687500 
	C501.964996,337.006256 501.470825,336.995667 501.223389,336.997375 
	C500.767334,336.031281 500.558716,335.063477 500.686035,334.047485 
	C501.326660,334.789185 501.631378,335.578979 501.950562,336.687500 
z"/>
</svg>